<?xml version="1.0" encoding="UTF-8" standalone="no"?>
<!-- Generator: Adobe Illustrator 15.1.0, SVG Export Plug-In  -->

<svg
   version="1.1"
   x="0px"
   y="0px"
   width="40"
   height="20"
   viewBox="0.914 0 40 20"
   enable-background="new 0.914 0 20 40"
   xml:space="preserve"
   id="svg18"
   sodipodi:docname="weapon_Incendiary Grenade.svg"
   inkscape:version="1.2.2 (732a01da63, 2022-12-09)"
   xmlns:inkscape="http://www.inkscape.org/namespaces/inkscape"
   xmlns:sodipodi="http://sodipodi.sourceforge.net/DTD/sodipodi-0.dtd"
   xmlns="http://www.w3.org/2000/svg"
   xmlns:svg="http://www.w3.org/2000/svg"><sodipodi:namedview
   id="namedview20"
   pagecolor="#ffffff"
   bordercolor="#000000"
   borderopacity="0.25"
   inkscape:showpageshadow="2"
   inkscape:pageopacity="0.0"
   inkscape:pagecheckerboard="0"
   inkscape:deskcolor="#d1d1d1"
   showgrid="false"
   inkscape:zoom="20.725"
   inkscape:cx="9.2882992"
   inkscape:cy="12.303981"
   inkscape:window-width="1920"
   inkscape:window-height="1009"
   inkscape:window-x="1432"
   inkscape:window-y="1"
   inkscape:window-maximized="1"
   inkscape:current-layer="svg18" />
<defs
   id="defs12">
</defs>
<path
   d="m 34.132315,13.232027 c -0.529,0.186 -1.06,0.41 -1.605,0.617 -0.193,0.073 -0.581,0.21 -0.761,0.391 -0.185,0.186 -0.724,0.102 -0.905,0.29 -0.375,0.381 -1.183,0.235 -1.563,0.616 -0.17,0.171 -0.605,0.219 -0.844,0.348 -0.068,0.038 -0.304,0.29 -0.425,0.29 -0.313,0 -0.486,0.005 -0.726,0.122 -0.356,0.173 -0.523,0.389 -0.988,0.494 -0.635,0.144 -1.48,0.084 -2.198,0.084 -1.427,0 -2.853,0 -4.279,0 -2.839,0 -5.678,0 -8.517999,0 -0.563,0 -0.987,0.059 -1.255,-0.33 -0.071,-0.104 -0.082,-0.105 -0.082,-0.328 0,-0.334 -0.009,-0.29 0.3300003,-0.29 0.365,0 0.426,0.248 0.636,0.248 1.424999,0 2.850999,0 4.274999,0 2.866,0 5.733,0 8.599,0 0.611,0 1.678,0.212 2.245,0 0.155,-0.059 0.516,-0.401 0.658,-0.494 0.266,-0.171 0.587,-0.294 0.823,-0.494 0.232,-0.196 0.588,-0.348 0.781,-0.618 -3.782,0 -7.563,0 -11.344,0 -2.31,0 -4.619,0 -6.929999,0 -0.5540003,0 -1.1080003,0 -1.6630003,0 -0.214,0 -0.107,-0.067 -0.242,-0.246 -0.444,-0.588 -0.698,-1.477 -0.849,-2.2 -0.457,-2.1900005 -0.645,-4.2180005 0.197,-6.3710005 0.13,-0.329 0.519,-1.548 0.928,-1.548 0.578,0 1.155,0 1.7340003,0 4.895999,0 9.792999,0 14.689999,0 1.172,0 2.349,0.022 3.52,0 1.074,-0.537 0.988,1.422 1.077,1.931 0.044,0.25 0.058,1.072 0.308,1.072 0.429,0 0.656,0.246 1.051,0.246 0.513,0 1.025,0 1.538,0 0.075,0 0.06,-0.942 0.06,-1.026 0,-0.175 1.571,0.183 1.728,0.656 0.075,0.229 0,0.612 0,0.854 0,0.658 0,1.317 0,1.978 0,0.273 0.207,2.2970005 -0.247,2.2290005 0.344,0.172 0.914,0.481 1.028,0.781 -0.027,0.047 0.005,0.364 -0.041,0.41 -0.076,0.076 -0.356,-0.05 -0.454,0 -0.174,0.089 0,0.318 -0.287,0.288 m -8.31,-5.3880005 c -1.459,-1.668 -3.85,-2.443 -6.018,-2.383 -2.044,0.057 -4.496,0.773 -4.637,3.207 1.101,-1.777 3.839,-1.617 5.019,-0.043 -0.908,-0.322 -1.776,0.155 -2.425,0.777 -0.326,0.312 -1.955,1.8660005 -2.428,1.1550005 -0.425,1.1 1.626,2.086 2.385,2.223 1.295,0.198 2.542,-0.136 3.605,-0.866 1.746,-1.201 4.28,-3.4290005 6.391,-1.727 -0.631,-0.7800005 -1.261,-1.5620005 -1.892,-2.3430005 m -11.972,5.9230005 c 0.041,0 0.083,0 0.123,0 -0.085,-0.802 -0.17,-1.604 -0.255,-2.406 -0.074,-0.697 -0.309,-1.5470005 -0.236,-2.2490005 0.164,-1.615 0.328,-3.232 0.492,-4.847 -0.342,0 -0.684,0 -1.028,0 -0.304,0 -0.48,-0.101 -0.522,0.229 -0.19,1.532 -0.382,3.067 -0.575,4.601 -0.051,0.412 0.086,0.883 0.136,1.2890005 0.115,0.909 0.23,1.819 0.344,2.729 0.081,0.644 -0.002,0.654 0.659,0.654 0.286,0 0.573,0 0.862,0"
   id="path14" />
<rect
   id="sliceCopy_x5F_10_1_"
   x="20.777"
   fill="none"
   width="28.367001"
   height="40"
   y="0" />
<rect
   id="sliceCopy_x5F_9_1_"
   fill="none"
   width="20.775999"
   height="40"
   x="0"
   y="0" />
</svg>
