<?xml version="1.0" encoding="UTF-8" standalone="no"?>
<svg
   version="1.1"
   width="200"
   height="90"
   id="svg12"
   sodipodi:docname="weapon_MP5-SD.svg"
   inkscape:version="1.2.2 (732a01da63, 2022-12-09)"
   xmlns:inkscape="http://www.inkscape.org/namespaces/inkscape"
   xmlns:sodipodi="http://sodipodi.sourceforge.net/DTD/sodipodi-0.dtd"
   xmlns="http://www.w3.org/2000/svg"
   xmlns:svg="http://www.w3.org/2000/svg">
  <defs
     id="defs16" />
  <sodipodi:namedview
     id="namedview14"
     pagecolor="#ffffff"
     bordercolor="#000000"
     borderopacity="0.25"
     inkscape:showpageshadow="2"
     inkscape:pageopacity="0.0"
     inkscape:pagecheckerboard="0"
     inkscape:deskcolor="#d1d1d1"
     showgrid="false"
     inkscape:zoom="4.145"
     inkscape:cx="96.381182"
     inkscape:cy="80.579011"
     inkscape:window-width="1920"
     inkscape:window-height="1009"
     inkscape:window-x="1432"
     inkscape:window-y="1"
     inkscape:window-maximized="1"
     inkscape:current-layer="svg12" />
  <path
     d="m 152.18747,0 c -2.475,0.495 -2.475,0.495 -5,1 0,2.97 0,5.94 0,9 -6.27,-0.33 -12.54,-0.66 -19,-1 0,-1.65 0,-3.3 0,-5 -2.375,-0.125 -2.375,-0.125 -5,0 -2,2 -2,2 -2,5 C 120.49859,8.9978 119.80971,8.9956 119.09996,8.9933 112.52714,8.97305 105.95433,8.95793 99.381488,8.94822 96.004378,8.94302 92.627308,8.93552 89.250208,8.92459 60.519588,8.834029 60.519588,8.834029 46.187468,10 c 0.33,-1.32 0.66,-2.64 1,-4 -3.23403,-2.450025 -4.61675,-3.02555 -8.75,-2.75 -3.25,0.75 -3.25,0.75 -4.25,1.75 -0.0406,1.666171 -0.0427,3.333881 0,5 -1.17562,-0.20625 -2.35125,-0.4125 -3.5625,-0.625 -4.26961,-0.513865 -7.42121,-0.0742 -11.4375,1.625 -2.4375,2.625 -2.4375,2.625 -4,5 -0.61488,-0.167578 -1.22977,-0.335156 -1.86328,-0.507812 C 12.515948,15.288516 11.707698,15.084844 10.874968,14.875 10.074458,14.666172 9.2739477,14.457344 8.4491877,14.242188 6.1874677,14 6.1874677,14 3.1874677,16 c -0.40063,1.920166 -0.40063,1.920166 -0.44141,4.253906 -0.0396,1.28294 -0.0396,1.28294 -0.0801,2.591797 -0.0135,0.896543 -0.0271,1.793086 -0.041,2.716797 -0.1209,6.040355 -0.49454,11.630145 -1.99707003,17.5 -0.79481,3.49647 -1.05679,6.70478 0.55957003,9.9375 1.32,0 2.64,0 4,0 2.87513,-5.90378 4.8380603,-11.532878 6.0000003,-18 1.13438,0.185625 2.26875,0.37125 3.4375,0.5625 1.17563,0.144375 2.35125,0.28875 3.5625,0.4375 0.33,-0.33 0.66,-0.66 1,-1 1.84892,-0.233639 3.70488,-0.413036 5.5625,-0.5625 1.01191,-0.08379 2.02383,-0.167578 3.06641,-0.253906 0.78247,-0.06059 1.56493,-0.121172 2.3711,-0.183594 0.30938,0.639375 0.61875,1.27875 0.9375,1.9375 1.0625,2.0625 1.0625,2.0625 2.0625,3.0625 -0.11414,5.7069 -1.72495,8.25651 -5.43359,12.24219 -3.7325,4.18859 -5.81944,8.05479 -5.56641,13.75781 2.26405,1.3668 4.53501,2.71844 6.8125,4.0625 0.6426,0.38994 1.2852,0.77988 1.94727,1.18164 1.70312,0.99717 3.46969,1.88399 5.24023,2.75586 0.99,-0.33 1.98,-0.66 3,-1 0.44839,-1.55213 0.88381,-3.10891 1.26172,-4.67969 1.59928,-5.0263 4.30292,-9.65637 6.73828,-14.32031 0.84305,0.31969 1.68609,0.63938 2.55469,0.96875 5.76305,1.725 11.49867,1.87553 17.44531,1.03125 2.75,-2.6875 2.75,-2.6875 4,-6 0.61875,-1.42312 0.61875,-1.42312 1.25,-2.875 0.2475,-0.70125 0.495,-1.4025 0.75,-2.125 0.66,0 1.32,0 2,0 0.33,1.32 0.66,2.64 1,4 0.99,-1.65 1.98,-3.3 3,-5 1.50717,3.9602 2.9918,7.91495 4.32422,11.9375 3.39708,10.18254 7.67759,19.57269 12.67578,29.0625 0.67091,1.3312 1.34008,2.66332 2,4 3.994552,-0.61455 6.744662,-2.70647 10.000002,-5 -1.34392,-4.39409 -3.09494,-8.25962 -5.25,-12.3125 C 96.222828,57.5484 92.336098,44.71428 91.187468,30 c 0.80839,0.490816 0.80839,0.490816 1.63312,0.991547 2.92457,1.246069 5.06132,1.211563 8.236992,1.143707 1.18093,-0.02017 2.36185,-0.04034 3.57856,-0.06113 1.90486,-0.04829 1.90486,-0.04829 3.8482,-0.09756 1.30391,-0.02503 2.60782,-0.05005 3.95124,-0.07584 3.45914,-0.06651 6.91789,-0.145429 10.3767,-0.226957 3.53247,-0.08106 7.06516,-0.150353 10.59784,-0.220642 6.92605,-0.139538 13.85176,-0.292196 20.77735,-0.453125 0.495,-0.99 0.495,-0.99 1,-2 14.85,-0.33 29.7,-0.66 45,-1 0,-4.29 0,-8.58 0,-13 -2.35439,-1.177193 -3.64767,-1.08906 -6.26612,-1.021729 -1.32114,0.03015 -1.32114,0.03015 -2.66897,0.0609 -0.95213,0.02704 -1.90425,0.05407 -2.88523,0.08193 -0.97379,0.02361 -1.94759,0.04722 -2.95089,0.07155 -3.11808,0.07673 -6.23591,0.160714 -9.35379,0.244858 -2.11067,0.05321 -4.22134,0.105952 -6.33203,0.158203 -5.18114,0.129287 -10.3621,0.264544 -15.54297,0.404288 -0.0909,-1.121484 -0.0909,-1.121484 -0.1836,-2.265625 -0.0838,-0.984844 -0.16757,-1.969687 -0.2539,-2.984375 -0.0812,-0.974531 -0.16242,-1.949062 -0.2461,-2.953125 C 153.23672,4.435383 152.83375,2.280989 152.18747,0 Z M 69.187468,43 c -0.47437,1.46437 -0.94875,2.92875 -1.4375,4.4375 -0.26684,0.82371 -0.53367,1.64742 -0.80859,2.49609 -0.57546,2.02861 -0.57546,2.02861 -1.75391,3.06641 -1.66617,0.0406 -3.33388,0.0427 -5,0 -1.80412,-2.75924 -2.01272,-3.88972 -1.625,-7.25 0.20625,-0.9075 0.4125,-1.815 0.625,-2.75 3.3,0 6.6,0 10,0 z m -15,0 c 0.99,3.3 1.98,6.6 3,10 -4.28985,-0.26495 -4.28985,-0.26495 -7.5625,-2.75 -0.69168,-2.39642 -0.69168,-2.39642 0.8125,-5 0.86625,-1.11375 0.86625,-1.11375 1.75,-2.25 0.66,0 1.32,0 2,0 z"
     fill="#000000"
     id="path10" />
</svg>
